HIERARCHY
ROOT RootJoint
{
    OFFSET   0.000000   0.000000   0.000000
    CHANNELS 6 Xposition Yposition Zposition Xrotation Yrotation Zrotation
    JOINT pelvis_lowerback
    {
        OFFSET   0.000000   0.093605   0.000000
        CHANNELS 3 Xrotation Yrotation Zrotation
        JOINT lowerback_torso
        {
            OFFSET   0.000000   0.100000   0.000000
            CHANNELS 3 Xrotation Yrotation Zrotation
            JOINT torso_head
            {
                OFFSET   0.000000   0.282350   0.000000
                CHANNELS 3 Xrotation Yrotation Zrotation
                End Site
                {
                    OFFSET   0.000000   0.192650   0.000000
                }
            }
            JOINT rTorso_Clavicle
            {
                OFFSET  -0.001000   0.157500   0.000000
                CHANNELS 3 Xrotation Yrotation Zrotation
                JOINT rShoulder
                {
                    OFFSET  -0.117647   0.000000   0.000000
                    CHANNELS 3 Xrotation Yrotation Zrotation
                    JOINT rElbow
                    {
                        OFFSET  -0.245000   0.000000   0.000000
                        CHANNELS 3 Xrotation Yrotation Zrotation
                        JOINT rWrist
                        {
                            OFFSET  -0.240000   0.000000   0.000000
                            CHANNELS 3 Xrotation Yrotation Zrotation
                            End Site
                            {
                                OFFSET  -0.116353  -0.002500   0.000000
                            }
                        }
                    }
                }
            }
            JOINT lTorso_Clavicle
            {
                OFFSET   0.001000   0.157500   0.000000
                CHANNELS 3 Xrotation Yrotation Zrotation
                JOINT lShoulder
                {
                    OFFSET   0.117647   0.000000   0.000000
                    CHANNELS 3 Xrotation Yrotation Zrotation
                    JOINT lElbow
                    {
                        OFFSET   0.245000   0.000000   0.000000
                        CHANNELS 3 Xrotation Yrotation Zrotation
                        JOINT lWrist
                        {
                            OFFSET   0.240000   0.000000   0.000000
                            CHANNELS 3 Xrotation Yrotation Zrotation
                            End Site
                            {
                                OFFSET   0.116353  -0.002500   0.000000
                            }
                        }
                    }
                }
            }
        }
    }
    JOINT rHip
    {
        OFFSET  -0.100000  -0.051395   0.000000
        CHANNELS 3 Xrotation Yrotation Zrotation
        JOINT rKnee
        {
            OFFSET   0.000000  -0.410000   0.000000
            CHANNELS 3 Xrotation Yrotation Zrotation
            JOINT rAnkle
            {
                OFFSET   0.000000  -0.390000   0.000000
                CHANNELS 3 Xrotation Yrotation Zrotation
                JOINT rToeJoint
                {
                    OFFSET   0.000000  -0.050000   0.130000
                    CHANNELS 3 Xrotation Yrotation Zrotation
                    End Site
                    {
                        OFFSET  -0.010000   0.002000   0.060000
                    }
                }
            }
        }
    }
    JOINT lHip
    {
        OFFSET   0.100000  -0.051395   0.000000
        CHANNELS 3 Xrotation Yrotation Zrotation
        JOINT lKnee
        {
            OFFSET   0.000000  -0.410000   0.000000
            CHANNELS 3 Xrotation Yrotation Zrotation
            JOINT lAnkle
            {
                OFFSET   0.000000  -0.390000   0.000000
                CHANNELS 3 Xrotation Yrotation Zrotation
                JOINT lToeJoint
                {
                    OFFSET   0.000000  -0.050000   0.130000
                    CHANNELS 3 Xrotation Yrotation Zrotation
                    End Site
                    {
                        OFFSET   0.010000   0.002000   0.060000
                    }
                }
            }
        }
    }
}
MOTION
Frames: 8
Frame Time:   0.008333
 -2.370006   0.916168   4.041230   5.862142 -11.518852  -2.024559   2.184000  -1.598606  -0.867201   3.051481  -3.592828   3.484737   7.231790   0.293893  -0.930062   1.842856  -9.263345 -14.235133  19.987197   9.140991  37.837100  -0.781839  87.094553   0.786445  -1.643973   5.933954   4.990975  -0.520400  -0.478581  15.735373  11.575316 -22.600980 -24.858247 -179.850017 -78.984728 -179.820634  -1.402467  -9.905067  -7.788327 -27.853971  -9.716281 -11.157135  53.844916  -0.007592  -0.007016  -1.561940 -15.633528   5.570234  -1.686837   0.001356  -0.001906  -2.171153   5.391537  -5.761321   1.850450  -0.000041   0.000541  -7.866049  13.108293   5.427467  -0.046968   0.000088  -0.000000
 -2.370366   0.916378   4.042134   5.904041 -11.539283  -2.138045   2.287815  -1.763772  -0.789452   2.860833  -3.632943   3.485452   7.261425   0.418558  -0.935582   1.778928  -9.372688 -13.706256  19.298639   8.851994  38.018151  -0.806036  87.512463   0.812119  -1.668207   5.978499   4.768494  -0.749922  -0.497263  15.438155  10.404823 -22.733729 -25.062625 -179.878662 -78.958299 -179.855148  -1.419416  -9.901128  -7.597125 -28.274455  -9.469742 -11.008325  51.723879  -0.007793  -0.009595  -2.006836 -15.635616   5.458605  -1.729443   0.001306  -0.001704  -2.155426   5.551579  -5.603760   1.881936  -0.000043   0.000475  -7.964654  12.957940   5.240988  -0.014296   0.000109  -0.000001
 -2.370743   0.916522   4.042944   5.977362 -11.589358  -2.202919   2.391624  -1.916211  -0.758235   2.658332  -3.667116   3.473174   7.272849   0.535892  -0.943106   1.717053  -9.446034 -13.126279  18.640217   8.611050  38.230045  -0.833167  87.888727   0.840378  -1.688341   5.941496   4.502145  -0.966598  -0.535704  15.106087   9.292981 -22.854195 -25.282251 -179.903541 -78.978840 -179.884800  -1.435134  -9.897788  -7.267291 -28.706164  -9.229033 -10.873633  49.506790  -0.007090  -0.011453  -2.431671 -15.633539   5.354403  -1.763923   0.001241  -0.001503  -2.162617   5.718045  -5.489541   1.887838  -0.000036   0.000387  -8.045695  12.830632   5.061598   0.017333   0.000123  -0.000001
 -2.371116   0.916604   4.043714   6.049983 -11.644406  -2.233731   2.507137  -2.061699  -0.750928   2.475339  -3.700173   3.450527   7.279743   0.644927  -0.954256   1.662773  -9.500099 -12.544954  18.023292   8.402247  38.447233  -0.873941  88.240908   0.881900  -1.709063   5.900727   4.264080  -1.164265  -0.583416  14.772915   8.250635 -22.971442 -25.501736 -179.923586 -79.002731 -179.908644  -1.448583  -9.877731  -6.917668 -29.145099  -8.999702 -10.760754  47.371301  -0.005816  -0.012507  -2.830997 -15.630299   5.257243  -1.796792   0.001183  -0.001326  -2.167283   5.877948  -5.412706   1.889149  -0.000029   0.000311  -8.121731  12.716222   4.895284   0.046681   0.000129  -0.000001
 -2.371489   0.916644   4.044480   6.115700 -11.693556  -2.245032   2.632656  -2.201499  -0.751509   2.317632  -3.733803   3.424129   7.286412   0.746329  -0.967116   1.615609  -9.544497 -11.982696  17.448843   8.213812  38.658552  -0.936551  88.570279   0.944904  -1.730207   5.865134   4.060165  -1.343426  -0.634911  14.448141   7.276916 -23.084386 -25.716512 -179.939552 -79.025179 -179.927632  -1.462411  -9.858556  -6.588212 -29.581223  -8.784101 -10.658217  45.358803  -0.004314  -0.013040  -3.204678 -15.626636   5.166656  -1.829000   0.001132  -0.001175  -2.164549   6.026312  -5.359344   1.891268  -0.000024   0.000251  -8.196449  12.608786   4.741448   0.073535   0.000130  -0.000001
 -2.371870   0.916655   4.045267   6.175081 -11.732670  -2.244442   2.764428  -2.335576  -0.752766   2.183232  -3.768083   3.398045   7.293853   0.840748  -0.980141   1.574523  -9.584265 -11.448234  16.915279   8.039259  38.859181  -1.035828  88.877435   1.044281  -1.751029   5.830625   3.882766  -1.506003  -0.686509  14.136527   6.368642 -23.191045 -25.924009 -179.952234 -79.045635 -179.942718  -1.477134  -9.844610  -6.287047 -30.008186  -8.582843 -10.558755  43.475903  -0.002782  -0.013235  -3.553885 -15.622769   5.082194  -1.860870   0.001085  -0.001048  -2.154405   6.161533  -5.321022   1.894770  -0.000020   0.000204  -8.270884  12.505491   4.598942   0.097896   0.000125  -0.000001
 -2.372267   0.916644   4.046089   6.230094 -11.760484  -2.235552   2.898929  -2.463528  -0.751849   2.068492  -3.802476   3.374154   7.302117   0.928731  -0.992569   1.538556  -9.621836 -10.944870  16.420133   7.875173  39.047222  -1.203781  89.163345   1.212106  -1.771089   5.793752   3.724469  -1.654106  -0.735971  13.840684   5.521917 -23.290092 -26.122604 -179.962299 -79.064270 -179.954698  -1.492488  -9.835232  -6.012904 -30.421977  -8.395776 -10.459047  41.719169  -0.001329  -0.013194  -3.880054 -15.618799   5.003447  -1.892365   0.001041  -0.000940  -2.137904   6.283455  -5.293218   1.899166  -0.000017   0.000167  -8.345408  12.404961   4.466801   0.119811   0.000118  -0.000001
 -2.372872   0.916680   4.046964   6.284385 -11.926488  -2.248604   2.907231  -2.537577  -0.793813   2.039526  -3.808189   3.341373   7.318753   1.049730  -0.992755   1.602147  -9.508239 -10.212205  15.720248   7.838351  39.251099  -0.738392  88.975525   0.743839  -1.711295   5.837592   3.484253  -1.755645  -0.886125  13.351790   4.657046 -23.341384 -26.369557 -179.993887 -79.672479 -179.986484  -1.470739 -10.136188  -5.695175 -30.687593  -8.321804 -10.269210  39.369237   0.002483  -0.010697  -3.958338 -15.531981   5.024220  -1.882435   0.000752  -0.000733  -2.267845   6.464645  -5.199756   2.220609  -0.000167   0.000174  -8.619605  12.394987   4.243992   0.160836   0.000156  -0.000002
